<svg xmlns="http://www.w3.org/2000/svg" width="92" height="92" viewBox="0 0 92 92" fill="none">
  <path d="M61.138 43.105L58.0352 46.2076L56.2086 44.3808C55.6916 43.8641 54.8537 43.8641 54.3369 44.3808C53.82 44.8979 53.82 45.7357 54.3369 46.2526L57.0993 49.015C57.6167 49.532 58.4543 49.5315 58.9708 49.015L63.0094 44.9766C63.5265 44.4597 63.5265 43.6217 63.0096 43.105C62.4927 42.5883 61.6549 42.5881 61.138 43.105Z" fill="#2A72E5"/>
  <path d="M43.6279 34.028V44.259H39.4346C38.7035 44.259 38.1111 44.8514 38.1111 45.5824C38.1111 46.3135 38.7035 46.9059 39.4346 46.9059H48.42C49.0708 51.8738 53.3285 55.7228 58.4711 55.7228C63.6136 55.7228 67.8714 51.8738 68.5222 46.9059H87.705C89.6168 46.9059 91.1722 45.3506 91.1722 43.4387V36.5067C91.1722 32.0088 88.5397 27.7484 84.2764 25.7878C86.3767 24.2683 87.747 21.799 87.747 19.0142C87.747 14.4058 83.9978 10.6567 79.3894 10.6567C74.781 10.6567 71.0319 14.4058 71.0319 19.0142C71.0319 21.8062 72.4093 24.281 74.519 25.7995C73.5719 26.2373 72.6827 26.802 71.8762 27.4798C70.3001 24.1876 67.4775 21.4766 63.9844 20.0707C66.9259 18.2277 68.8873 14.9592 68.8873 11.2395C68.8873 5.49611 64.2147 0.823486 58.4713 0.823486C52.7278 0.823486 48.0554 5.49611 48.0554 11.2395C48.0554 14.9686 50.0263 18.2445 52.9802 20.085C49.5465 21.483 46.7372 24.1451 45.1227 27.4914C44.3032 26.7972 43.4025 26.2256 42.4436 25.7852C44.542 24.2653 45.9106 21.7972 45.9106 19.0142C45.9106 14.4058 42.1615 10.6567 37.5531 10.6567C32.9447 10.6567 29.1955 14.4058 29.1955 19.0142C29.1955 21.8011 30.5679 24.272 32.671 25.7912C28.5853 27.6732 25.7705 31.8439 25.7705 36.6618V43.4387C25.7705 45.3506 27.3259 46.9059 29.2377 46.9059H33.2585C33.9895 46.9059 34.5819 46.3135 34.5819 45.5824C34.5819 44.8514 33.9895 44.259 33.2585 44.259H29.2377C28.7854 44.259 28.4175 43.891 28.4175 43.4387V36.6618C28.4175 31.7102 32.2196 27.6347 37.0733 27.3834C39.6678 27.2484 42.2266 28.2024 44.1248 30.1816C43.7901 31.4506 43.6279 32.7898 43.6279 34.028ZM73.6792 19.014C73.6792 15.8652 76.2411 13.3035 79.3898 13.3035C82.5384 13.3035 85.1004 15.8654 85.1004 19.014C85.1004 22.1549 82.5513 24.7112 79.4134 24.7241C79.3954 24.7241 79.3774 24.7239 79.3594 24.7239C76.2247 24.7075 73.6792 22.1526 73.6792 19.014ZM78.91 27.3832C84.098 27.1113 88.5255 31.2655 88.5255 36.5065V43.4386C88.5255 43.8909 88.1576 44.2588 87.7053 44.2588H73.3148V33.8505C73.3148 32.5943 73.1408 31.2957 72.8554 30.1772C74.4638 28.4895 76.5893 27.5034 78.91 27.3832ZM58.4714 53.0759C54.3395 53.0759 50.978 49.7144 50.978 45.5824C50.978 41.4507 54.3395 38.0892 58.4714 38.0892C62.6034 38.0892 65.9648 41.4507 65.9648 45.5824C65.9647 49.7144 62.6034 53.0759 58.4714 53.0759ZM50.7024 11.2395C50.7024 6.95565 54.1876 3.47046 58.4713 3.47046C62.7551 3.47046 66.2403 6.95565 66.2403 11.2395C66.2403 15.5158 62.7671 18.9959 58.4933 19.0079C58.4868 19.0079 58.4804 19.0073 58.4737 19.0073C58.4624 19.0073 58.451 19.0075 58.4395 19.0075C54.1706 18.9904 50.7024 15.5126 50.7024 11.2395ZM46.2749 34.028C46.2749 27.2532 51.7103 21.744 58.3059 21.6554C65.1577 21.5633 70.6678 27.1489 70.6678 33.8505V44.2588H68.5257C67.8724 39.2659 63.5801 35.4421 58.4713 35.4421C53.3405 35.4421 49.0678 39.2839 48.4168 44.2588H46.2747L46.2749 34.028ZM37.5758 24.7241C37.5644 24.7241 37.5529 24.7244 37.5416 24.7244C34.3981 24.7183 31.8423 22.159 31.8423 19.014C31.8423 15.8652 34.4042 13.3035 37.5529 13.3035C40.7016 13.3035 43.2635 15.8654 43.2635 19.014C43.2637 22.1553 40.7141 24.7117 37.5758 24.7241Z" fill="#2A72E5"/>
  <path d="M90.5418 63.4529C88.702 59.6116 84.8586 58.9093 80.9744 60.4262L60.7314 66.4154C60.6784 64.4044 59.7375 61.99 56.5559 60.7202C43.7628 55.6136 42.0741 54.6722 38.5809 54.6117C38.5626 54.611 38.5453 54.6106 38.5248 54.6106C28.4946 54.6441 26.4407 54.7246 21.2127 57.0645C14.1446 60.2278 13.4747 62.3364 9.04722 63.5538L2.97859 65.2221C1.70945 65.5712 0.823242 66.7341 0.823242 68.0502V88.2383C0.823242 89.2023 1.29705 90.1048 2.09044 90.6524C2.88488 91.2006 3.89726 91.3219 4.79706 90.9802L25.8636 82.9821C30.3333 81.5318 34.8607 81.4843 38.2892 82.8524L46.5355 86.1444C46.5549 86.1521 46.5748 86.1596 46.5948 86.1664C48.3778 86.7809 53.0394 87.9434 57.8382 85.4952L70.171 80.0401C70.8395 79.7443 71.1416 78.9628 70.8458 78.2942C70.5501 77.6255 69.7685 77.3241 69.1001 77.6192L56.7343 83.0891C56.7111 83.0993 56.685 83.1118 56.6624 83.1233C52.7784 85.1138 48.973 84.1812 47.4866 83.6737L39.2704 80.3937C35.2092 78.7731 30.1461 78.802 25.0136 80.4749C24.9937 80.4814 24.9735 80.4885 24.954 80.4959L3.85738 88.5057C3.74127 88.5494 3.64986 88.5127 3.59374 88.4737C3.53745 88.4347 3.47022 88.3624 3.47022 88.2383V68.0502C3.47022 67.9217 3.55669 67.8086 3.68021 67.7745L9.74867 66.1062C14.6821 64.7501 15.457 62.5402 22.2939 59.4807C27.0357 57.3582 28.7894 57.2904 38.5042 57.2577H38.5084C41.4646 57.3045 42.898 58.1182 55.5745 63.1787C58.9634 64.5311 57.9003 67.4507 57.9003 67.8363C57.8984 67.8421 57.8975 67.8483 57.8956 67.8541C57.8919 67.8656 57.8871 67.8764 57.8838 67.8878C57.8061 68.1508 57.0528 70.4392 54.5186 69.8192C50.7279 68.8905 41.6963 66.7156 41.6054 66.6937C40.8946 66.5227 40.1799 66.9602 40.0087 67.6706C39.8376 68.3812 40.275 69.0961 40.9856 69.2673C41.0765 69.289 50.1031 71.4627 53.8888 72.39C56.7962 73.1024 59.064 71.7212 60.1527 69.347C82.8036 62.6459 81.7605 62.9599 81.937 62.8919C83.6325 62.2295 86.6906 61.5704 88.1449 64.577C89.6235 67.9757 86.2646 69.9654 85.4852 70.3718C84.8506 70.6525 80.1632 72.7258 74.7491 75.1208C74.0806 75.4164 73.7785 76.1979 74.0741 76.8665C74.37 77.535 75.1517 77.8371 75.82 77.5414C81.3561 75.0925 86.1325 72.9797 86.5923 72.7764C86.6156 72.7662 86.6386 72.7553 86.6613 72.7436C89.0759 71.5052 92.614 68.1631 90.5596 63.4917C90.5538 63.4787 90.5478 63.4658 90.5418 63.4529Z" fill="#2A72E5"/>
</svg>