<svg xmlns="http://www.w3.org/2000/svg" width="92" height="92" viewBox="0 0 92 92" fill="none">
  <path d="M88.5239 86.2691H50.66L48.8919 88.5164H43.1074L41.3392 86.2691H3.47548V44.7349H0.823242V88.9213H40.0513L41.8194 91.1687H50.1802L51.9483 88.9213H91.1762V76.392H88.5239V86.2691Z" fill="#2A72E5"/>
  <path d="M85.5181 33.9316V26.9106L67.2376 26.8812V23.1408L70.5692 20.133L67.0921 11.7392L62.6096 11.968L59.4246 8.78303L59.6534 4.30057L51.2596 0.823486L48.2518 4.15505H43.7474L40.7398 0.823486L32.3456 4.30057L32.5746 8.78303L29.3896 11.968L24.9072 11.7392L21.4303 20.1332L24.7616 23.141V26.8812L6.48135 26.9106V33.9316H0.823242V42.0828H3.47548V36.5838H6.48135V83.6163H85.5181V36.5838H88.5239V73.7399H91.1762V33.9316H85.5181ZM24.597 19.4189L26.6414 14.4832L30.4316 14.6768L35.2836 9.82501L35.09 6.03461L40.0256 3.99026L42.5688 6.80729H49.4306L51.974 3.99026L56.9096 6.03461L56.716 9.82501L61.5678 14.6768L65.3582 14.4832L67.4026 19.4189L64.5855 21.9622V26.8768L57.8434 26.866C57.9033 26.3792 57.935 25.8875 57.935 25.3931C57.935 18.812 52.581 13.458 45.9999 13.458C39.4188 13.458 34.0648 18.812 34.0648 25.3931C34.0648 25.8875 34.0963 26.3794 34.1562 26.866L27.4141 26.8768V21.9622L24.597 19.4189ZM44.6736 80.9641H9.13359V29.5585L38.9271 29.5106C42.0956 29.5106 44.6736 32.0884 44.6736 35.2571V80.9641ZM45.9997 30.7319C44.5047 28.4041 41.8925 26.8584 38.925 26.8584L36.8332 26.8618C36.7565 26.379 36.7171 25.888 36.7171 25.3931C36.7171 20.2747 40.8812 16.1103 45.9999 16.1103C51.1184 16.1103 55.2827 20.2747 55.2827 25.3931C55.2827 25.8879 55.2431 26.3789 55.1664 26.8618L53.0745 26.8584H53.0723C50.1064 26.8584 47.4943 28.4041 45.9997 30.7319ZM82.8658 80.9641H47.3258V35.2571C47.3258 32.0891 49.9027 29.5115 53.0706 29.5106L82.8658 29.5585V80.9641Z" fill="#2A72E5"/>
  <path d="M33.459 51.538L33.4261 51.5145C34.2547 50.248 34.7385 48.7366 34.7385 47.1134V44.2923C34.7385 39.8464 31.1215 36.2295 26.6758 36.2295C22.2301 36.2295 18.6132 39.8464 18.6132 44.2923V47.1134C18.6132 48.7406 19.0994 50.2558 19.9319 51.5242C15.9357 54.4403 13.5508 59.1296 13.5508 64.078V65.4041H39.9185V64.078C39.9183 59.1105 37.5037 54.4224 33.459 51.538ZM21.2653 44.2923C21.2653 41.3089 23.6924 38.8817 26.6757 38.8817C29.6589 38.8817 32.086 41.3089 32.086 44.2923V47.1134C32.086 50.0966 29.6589 52.5238 26.6757 52.5238C23.6924 52.5238 21.2653 50.0966 21.2653 47.1134V44.2923ZM16.2718 62.7521C16.6488 59.1358 18.5527 55.8 21.5246 53.6444L21.7441 53.4853C23.1084 54.5437 24.8191 55.176 26.6757 55.176C28.5352 55.176 30.2484 54.5414 31.6139 53.4798L31.9189 53.6973C34.9047 55.8265 36.8175 59.1429 37.1966 62.7519H16.2718V62.7521Z" fill="#2A72E5"/>
  <path d="M50.6855 38.718V51.9792H58.6423V46.6747H78.6131V44.0225H58.6423V38.718H50.6855ZM55.99 49.327H53.3378V41.3703H55.99V49.327Z" fill="#2A72E5"/>
  <path d="M71.9825 65.4172H52.0117V68.0694H71.9825V73.3739H79.9393V60.1127H71.9825V65.4172ZM74.6348 62.7649H77.287V70.7216H74.6348V62.7649Z" fill="#2A72E5"/>
  <path d="M69.3793 49.3269H61.4226V54.6314H52.0117V57.2836H61.4226V62.5881H69.3793V57.2836H78.6138V54.6314H69.3793V49.3269ZM66.727 59.9359H64.0748V51.9791H66.727V59.9359Z" fill="#2A72E5"/>
  <path d="M22.7559 69.8679H25.4081V72.5202H22.7559V69.8679Z" fill="#2A72E5"/>
  <path d="M28.0605 69.8679H30.7128V72.5202H28.0605V69.8679Z" fill="#2A72E5"/>
</svg>