<svg xmlns="http://www.w3.org/2000/svg" width="92" height="74" viewBox="0 0 92 74" fill="none">
  <path d="M53.7678 43.4611V41.8848C53.7678 41.1539 53.1754 40.5613 52.4442 40.5613C51.7131 40.5613 51.1207 41.1539 51.1207 41.8848V43.4611C51.1207 44.192 51.7131 44.7846 52.4442 44.7846C53.1752 44.7846 53.7678 44.192 53.7678 43.4611ZM42.9487 45.995C44.2908 45.995 45.567 45.4137 46.4501 44.4004C46.9304 43.8495 46.8729 43.0134 46.3218 42.533C45.7703 42.0527 44.9347 42.1102 44.4544 42.6613C44.0742 43.0975 43.5252 43.3478 42.9487 43.3478C42.372 43.3478 41.8234 43.0975 41.4432 42.6613C40.9627 42.11 40.1268 42.0528 39.5758 42.533C39.0249 43.0132 38.9674 43.8493 39.4475 44.4004C40.3306 45.4139 41.6067 45.995 42.9487 45.995ZM34.7769 43.4611V41.8848C34.7769 41.1539 34.1845 40.5613 33.4534 40.5613C32.7222 40.5613 32.1298 41.1539 32.1298 41.8848V43.4611C32.1298 44.192 32.7222 44.7846 33.4534 44.7846C34.1845 44.7846 34.7769 44.192 34.7769 43.4611ZM87.9889 14.8577C88.4381 14.3413 88.6985 13.6716 88.6985 12.9451C88.6985 11.71 87.9499 10.6356 86.7912 10.2078L85.2768 9.64861C84.2444 9.26761 83.4339 8.4569 83.0527 7.42473L82.4937 5.91043C82.0659 4.7519 80.9915 4.00314 79.7566 4.00314C79.7564 4.00314 79.7564 4.00314 79.7564 4.00314C78.5213 4.00314 77.4469 4.75173 77.019 5.91043L76.4599 7.42473C76.0789 8.45708 75.2682 9.26779 74.2359 9.64879L72.7214 10.2078C71.9615 10.4884 71.3797 11.0482 71.0682 11.7481C66.7031 11.5326 62.3217 11.5458 57.9537 11.7866V10.4443C57.9537 9.64914 57.8444 8.85961 57.6288 8.09779C57.4297 7.39455 56.6984 6.98567 55.9948 7.18473C55.2914 7.38379 54.8825 8.11526 55.0816 8.81867C55.2309 9.34579 55.3064 9.89284 55.3064 10.4443V11.9598C52.1446 12.2009 48.993 12.5593 45.8633 13.0388C43.953 13.3314 42.2804 14.2222 41.0185 15.5039C41.0063 15.496 40.9952 15.4868 40.9828 15.479L30.945 9.13349C29.4902 8.21373 27.7219 8.16096 26.2152 8.99108C24.7082 9.82137 23.8084 11.3443 23.8084 13.0649V25.7561C23.8084 27.4767 24.7082 28.9997 26.2152 29.83C26.9268 30.2219 27.6964 30.4171 28.4637 30.4171C29.3217 30.4171 30.1772 30.173 30.945 29.6877L38.5572 24.8755V32.3454C33.6738 32.5167 28.7963 32.9727 23.9451 33.7158C22.5944 33.9227 21.3628 34.429 20.3105 35.1603C19.3729 35.0733 18.4324 34.9753 17.493 34.8664C18.3967 33.4585 18.9233 31.7865 18.9233 29.9928C18.9233 25.0026 14.8632 20.9425 9.87301 20.9425C9.2243 20.9425 8.59201 21.0126 7.98159 21.1428V10.4447C7.98159 7.47855 10.1097 4.99985 13.0415 4.55073C25.3849 2.66002 37.9025 2.65985 50.2463 4.55073C50.7868 4.63349 51.3115 4.78914 51.8056 5.0129C52.4714 5.31467 53.2556 5.01908 53.5574 4.35343C53.859 3.68761 53.5638 2.90338 52.8979 2.60179C52.1838 2.27832 51.4265 2.05367 50.6471 1.9342C38.0379 0.0027281 25.2507 0.0027281 12.6408 1.9342C8.40742 2.58273 5.33471 6.1619 5.33471 10.4448V22.168C2.64001 23.7364 0.823242 26.6553 0.823242 29.9921C0.823242 34.9825 4.8833 39.0424 9.87354 39.0424C11.8918 39.0424 13.7575 38.3778 15.2644 37.2567C16.1665 37.3755 17.0735 37.4853 17.982 37.5848C17.1281 38.9267 16.6394 40.5198 16.6394 42.2256V60.1575C16.6394 63.4457 18.5532 66.4914 21.5149 67.9165C21.6999 68.0055 21.8954 68.0478 22.0879 68.0478C22.5805 68.0477 23.0536 67.7715 23.2814 67.2978C23.5985 66.6393 23.3215 65.8483 22.6627 65.5312C20.6118 64.5442 19.2865 62.4348 19.2865 60.1573V42.2258C19.2865 40.3905 20.1018 38.7424 21.4175 37.6457C21.4964 37.5959 21.5689 37.5371 21.6357 37.472C22.4051 36.8898 23.3269 36.4878 24.3464 36.3317C29.4976 35.5427 34.6789 35.084 39.8654 34.9536C39.8707 34.9536 39.8758 34.9545 39.8811 34.9545C39.8959 34.9545 39.9101 34.9527 39.9247 34.9522C47.1468 34.774 54.3784 35.233 61.551 36.3317C63.0835 36.5664 64.3954 37.3563 65.2996 38.4798C65.3042 38.4874 65.3077 38.4952 65.3125 38.5026C65.3585 38.5755 65.4124 38.6403 65.4694 38.7008C66.1915 39.6903 66.6111 40.9097 66.6111 42.2256V57.683C65.1717 56.515 63.0554 56.5028 61.6017 57.7533L56.8235 61.8634C55.3804 63.1047 55.0689 65.1774 55.983 66.7706C46.8051 67.7494 37.5256 67.6944 28.3629 66.599C27.6381 66.5131 26.9783 67.0301 26.8915 67.7561C26.8048 68.482 27.3228 69.1405 28.0486 69.2274C32.9914 69.8184 37.9662 70.1136 42.9425 70.1136C47.9668 70.1136 52.9918 69.8088 57.9835 69.2066L60.519 72.1545C61.1998 72.9461 62.1484 73.4253 63.1897 73.5034C63.2898 73.511 63.3897 73.5147 63.4888 73.5147C64.4229 73.5147 65.3164 73.1844 66.0319 72.569L70.8101 68.459C72.4442 67.0534 72.6302 64.5804 71.2246 62.9463L69.2423 60.6417C69.2516 60.4792 69.258 60.3174 69.258 60.1575V49.3566C74.1455 49.1851 79.0544 48.7291 83.8701 47.9914C88.1035 47.3431 91.1762 43.7639 91.1762 39.4811V21.5491C91.1762 18.8964 89.9765 16.4625 87.9889 14.8577ZM9.87354 36.3955C6.34271 36.3955 3.4703 33.523 3.4703 29.9921C3.4703 26.4615 6.34271 23.5889 9.87354 23.5889C13.4044 23.5889 16.2768 26.4613 16.2768 29.9921C16.2768 33.523 13.4044 36.3955 9.87354 36.3955ZM38.5576 21.5491V21.7432L29.5309 27.4495C28.9041 27.8459 28.1425 27.8685 27.4931 27.5108C26.8437 27.1531 26.4559 26.497 26.4559 25.7556V13.0644C26.4559 12.323 26.8437 11.6669 27.4931 11.309C28.1427 10.9511 28.9047 10.9743 29.5309 11.3704L39.4758 17.6572C38.8871 18.8283 38.5576 20.1507 38.5576 21.5491ZM73.6385 12.6911L75.1528 12.1321C76.9122 11.4827 78.2938 10.1011 78.9434 8.34149L79.5025 6.8272C79.5185 6.78343 79.5678 6.6502 79.7564 6.6502C79.9449 6.6502 79.9941 6.78326 80.0102 6.82702L80.5692 8.34149C81.219 10.1009 82.6006 11.4825 84.3596 12.1319L85.8741 12.6911C85.9179 12.7072 86.0511 12.7564 86.0511 12.9451C86.0511 13.1337 85.9179 13.183 85.8741 13.1992L84.3598 13.7583C82.6004 14.4077 81.2188 15.7893 80.5692 17.5488L80.0102 19.0633C79.9939 19.1071 79.9449 19.2401 79.7564 19.2401C79.5678 19.2401 79.5184 19.1069 79.5025 19.0633L78.9434 17.5488C78.2936 15.7894 76.9121 14.4078 75.1528 13.7584L73.6384 13.1994C73.6002 13.1853 73.494 13.1457 73.4675 13.0107C73.4656 12.9888 73.4644 12.9668 73.4614 12.9453C73.4617 12.7566 73.5948 12.7074 73.6385 12.6911ZM61.9519 33.7153C61.1947 33.5994 60.4369 33.4907 59.6785 33.3887V24.1695C59.6785 23.4281 60.066 22.772 60.7154 22.4141C61.365 22.0563 62.127 22.0796 62.7533 22.4756L72.7911 28.8213C73.3842 29.1961 73.7245 29.8136 73.7245 30.5152C73.7245 31.2168 73.3842 31.8343 72.7911 32.2091L66.6868 36.068C65.4385 34.8461 63.8066 33.9993 61.9519 33.7153ZM69.0838 66.4524L64.3057 70.5622C64.0502 70.7821 63.7235 70.8894 63.3881 70.864C63.0519 70.8387 62.7455 70.684 62.5257 70.4284L58.4156 65.6501C58.1958 65.3946 58.0888 65.0687 58.1139 64.7325C58.1391 64.3963 58.2939 64.09 58.5494 63.8703L63.3275 59.7604C63.5654 59.5557 63.8584 59.4557 64.1497 59.4557C64.5051 59.4557 64.8584 59.6044 65.1078 59.8942L69.2176 64.6723C69.6716 65.2 69.6115 65.9985 69.0838 66.4524ZM88.5291 39.4811C88.5291 42.4473 86.4011 44.926 83.4692 45.3751C78.7857 46.0924 74.0119 46.538 69.258 46.7085V42.226C69.258 40.7733 68.9036 39.4021 68.2712 38.1982L74.2055 34.4468C75.5617 33.5895 76.3714 32.1197 76.3714 30.5154C76.3714 28.9109 75.5615 27.4413 74.2055 26.584L64.1677 20.2383C62.7131 19.3187 60.945 19.2656 59.4381 20.0958C57.9311 20.9261 57.0312 22.4491 57.0312 24.1697V33.0615C51.7699 32.4668 46.4859 32.2068 41.2045 32.2804V21.5494C41.2045 20.35 41.5528 19.2303 42.1613 18.2921C42.2291 18.215 42.2855 18.1308 42.3327 18.0426C43.2379 16.7923 44.6254 15.9066 46.2644 15.6555C54.4948 14.3948 62.8795 13.9764 71.2009 14.4059C71.532 14.9821 72.0595 15.4383 72.7216 15.6827L74.2362 16.2419C75.2684 16.6229 76.0789 17.4334 76.4601 18.4658L77.0192 19.9803C77.4471 21.139 78.5217 21.8876 79.7568 21.8876C80.9917 21.8876 82.0661 21.1388 82.4938 19.9803L83.0529 18.466C83.4339 17.4336 84.2446 16.6229 85.2769 16.2419L85.2794 16.241C87.2682 17.2529 88.5291 19.2858 88.5291 21.5491V39.4811ZM36.9586 52.2604V62.1458C36.9586 63.5943 37.716 64.8763 38.9847 65.5753C39.5838 65.9053 40.2312 66.0694 40.8773 66.0694C41.5998 66.0694 42.3198 65.864 42.9662 65.4555L50.7849 60.5129C51.9267 59.7911 52.6082 58.5539 52.608 57.2032C52.608 55.8527 51.9265 54.6154 50.7849 53.8938L42.9662 48.9511C41.7416 48.1771 40.2533 48.1324 38.9847 48.8313C37.716 49.5299 36.9586 50.812 36.9586 52.2604ZM39.6057 52.2604C39.6057 51.584 40.0648 51.2583 40.2621 51.1496C40.377 51.0862 40.6022 50.987 40.8831 50.987C41.0841 50.987 41.3135 51.0377 41.5518 51.1884L49.3705 56.1311C49.9034 56.4682 49.9611 56.9932 49.9611 57.2032C49.9613 57.4132 49.9038 57.9384 49.3705 58.2754L41.5518 63.218C40.9802 63.5793 40.4594 63.3654 40.2621 63.2568C40.0648 63.1481 39.6057 62.8222 39.6057 62.146V52.2604Z" fill="#2A72E5"/>
</svg>