<svg xmlns="http://www.w3.org/2000/svg" width="83" height="92" viewBox="0 0 83 92" fill="none">
  <path d="M51.5056 16.5206C52.966 17.9787 54.9054 18.7817 56.9661 18.7817C61.0592 18.7817 64.4169 15.5792 64.6704 11.5482C66.5881 9.09587 68.7407 4.70519 65.8479 2.13393C63.1725 -0.244787 59.3 1.11276 55.8832 2.31077C54.67 2.73593 53.5242 3.13779 52.4849 3.36864C51.0047 3.69744 49.882 4.5167 49.238 5.73729C47.8653 8.33979 49.1018 11.9373 49.4553 12.8484C49.7843 14.2359 50.489 15.5038 51.5056 16.5206ZM56.9661 16.1344C55.6116 16.1344 54.3368 15.6062 53.3769 14.6477C53.0509 14.3219 52.7752 13.956 52.5513 13.5623C53.4997 13.2892 54.4921 12.6701 55.5978 11.2819C56.3087 10.389 58.0385 9.73546 61.3506 9.11528C61.5065 9.31595 61.8135 9.85724 62.0377 11.1548C61.9862 13.9092 59.7317 16.1344 56.9661 16.1344ZM51.5797 6.97253C51.8614 6.43866 52.3315 6.1148 53.0594 5.95296C54.2519 5.68787 55.5265 5.24118 56.7593 4.80914C58.644 4.14837 60.5705 3.47312 62.0981 3.47312C62.8892 3.47312 63.5737 3.65437 64.0894 4.11271C65.0417 4.95915 64.5442 6.60844 63.7943 8.02776C63.6049 7.68872 63.3912 7.4014 63.1522 7.16332C62.3635 6.37689 61.5665 6.40283 61.3411 6.42877C61.3141 6.43195 61.2871 6.43601 61.2604 6.44077C57.6228 7.09572 54.9157 7.88939 53.5271 9.6331C52.7392 10.6221 52.2062 10.9555 51.6422 11.068C51.2214 9.63839 51.0575 7.96228 51.5797 6.97253Z" fill="#2A72E5"/>
  <path d="M66.878 38.5817C69.6284 41.1575 74.688 40.3065 76.3637 36.6608L81.7893 25.3493C82.3236 24.2342 82.3892 22.9785 81.9741 21.814C81.559 20.6497 80.7142 19.7193 79.5945 19.1934C78.9773 18.9037 78.3201 18.7571 77.6415 18.7571C77.3261 18.7571 77.0153 18.7892 76.7134 18.8513C75.4049 19.1203 74.2603 19.95 73.6038 21.1485C73.6033 21.1494 73.6029 21.1503 73.6026 21.1511L72.2565 23.6079C71.9053 24.2489 72.1402 25.0533 72.7814 25.4047C73.4225 25.7563 74.227 25.5208 74.5782 24.8798L75.926 22.4203C76.2691 21.7936 76.9267 21.4042 77.6419 21.4042C77.9292 21.4042 78.2082 21.4667 78.4701 21.5897C78.9456 21.813 79.3047 22.2083 79.481 22.703C79.6574 23.1979 79.6296 23.7312 79.4027 24.2049L73.9778 35.5148C73.3068 36.9679 71.1176 38.0847 69.3266 37.0708L71.6232 30.2408C71.7865 29.7791 71.6901 29.1747 71.2546 28.7995L66.6793 24.5898C64.294 22.3957 61.2856 21.064 58.0901 20.7643C57.8215 20.7219 57.5483 20.6995 57.2719 20.6995H48.9468C47.6272 20.6995 46.309 20.8665 45.0289 21.196L33.2928 24.2152C30.5718 24.9153 28.3853 27.0243 27.5865 29.72L24.1687 41.28C23.339 43.9854 25.4314 47.2021 28.5662 47.1627C30.53 47.1627 32.2725 45.9127 32.9017 44.0541L36.3273 33.9804L42.8043 33.3518L40.9947 44.1765V44.1767L37.3365 61.8762L24.4475 75.0412L22.1076 76.6153C20.7035 77.5601 20.0362 79.2976 20.4471 80.9395C20.4495 80.949 20.4518 80.9582 20.4545 80.9675L22.4971 88.427C23.5206 92.2721 29.581 92.0161 30.2621 88.0864L31.4003 81.6145L45.7578 70.5933C48.1979 68.7204 49.9715 66.1787 50.8871 63.2433L51.3422 61.7836C51.5597 61.0857 51.1703 60.3436 50.4725 60.1258C49.7743 59.9086 49.0324 60.2977 48.8148 60.9955L48.3596 62.4553C47.6074 64.8668 46.1503 66.9547 44.1457 68.4937L30.2944 79.1262L27.1676 76.0472L39.4997 63.4509C39.6771 63.2696 39.7987 63.0412 39.85 62.7927L42.7199 48.9059C44.4437 52.9676 48.0349 55.9644 52.3359 56.9282L63.7819 59.5619L60.0177 67.8834L57.8783 70.8515C56.65 72.5563 56.9489 74.9491 58.559 76.2987L64.5618 81.3313C67.6752 83.8798 71.8977 80.4285 70.3945 76.9413L68.1625 71.9066L76.0868 60.6274C77.4066 58.7488 77.8012 56.4058 77.1699 54.1986C76.5386 51.9915 74.9644 50.2116 72.8509 49.3154L59.4653 43.6386L61.2371 33.5959L66.878 38.5817ZM26.5716 88.5371C26.035 88.5961 25.3515 88.4745 25.0502 87.7279L23.012 80.2849C22.8769 79.7245 23.1064 79.134 23.5852 78.8117L25.1395 77.7662L28.7618 81.3321L27.6547 87.6278C27.5622 88.1548 27.1067 88.5371 26.5716 88.5371ZM68.8488 30.1844L67.1364 35.2766L61.7764 30.5384L62.4282 26.8438C62.5516 26.1428 62.5288 25.4359 62.3735 24.761C63.2746 25.2404 64.1204 25.8337 64.8862 26.5381L68.8488 30.1844ZM28.5655 44.5159C27.4847 44.5048 26.2948 43.4545 26.7067 42.0315L30.1243 30.4719C30.4827 29.3035 31.326 28.0158 32.6872 27.2857L33.9724 32.6813L30.3941 43.2041C30.1285 43.9886 29.3938 44.5159 28.5655 44.5159ZM36.3688 31.3171L35.2108 26.4555L45.6879 23.7602C46.7528 23.4859 47.849 23.347 48.9462 23.347H56.7041C57.0515 23.347 57.3965 23.3636 57.7396 23.3929C58.3271 23.5006 58.8635 23.8055 59.2544 24.2713C59.7475 24.8588 59.9542 25.6292 59.8213 26.3846L56.8686 43.1213H43.8547L45.6994 32.086C45.6994 32.0855 45.6994 32.0851 45.6996 32.0846L46.052 29.9908C46.1734 29.2698 45.6876 28.5871 44.9666 28.4657C44.2446 28.3441 43.563 28.8303 43.4416 29.5511L43.257 30.6482L36.3688 31.3171ZM67.8122 79.1659C67.5984 79.3099 67.2153 79.8627 66.2629 79.3022L60.2602 74.2696C59.7073 73.806 59.6046 72.9842 60.0264 72.3986L61.5394 70.2995L63.0062 71.1585L65.612 72.6844L67.9747 78.0135C68.1434 78.3947 68.0797 78.8467 67.8122 79.1659ZM74.625 54.9263C75.0355 56.3608 74.7789 57.8841 73.9211 59.105L66.2665 70L62.8664 68.009L66.8604 59.1797C67.024 58.818 67.0167 58.4022 66.8406 58.0466C66.6644 57.691 66.3379 57.4331 65.9513 57.3444L52.9223 54.3465C49.4249 53.5629 46.5125 51.1205 45.1313 47.8129L44.2779 45.7692H57.71L71.8174 51.752C73.1913 52.3345 74.2146 53.4916 74.625 54.9263Z" fill="#2A72E5"/>
  <path d="M22.9739 53.9316C22.9739 53.2004 22.3814 52.6079 21.6502 52.6079H1.38226C0.651066 52.6079 0.0585938 53.2004 0.0585938 53.9316C0.0585938 54.6628 0.651066 55.2552 1.38226 55.2552H21.6502C22.3812 55.2552 22.9739 54.6628 22.9739 53.9316Z" fill="#2A72E5"/>
  <path d="M29.0437 60.3641C29.0437 59.6329 28.4512 59.0404 27.72 59.0404H17.0063C16.2751 59.0404 15.6826 59.6329 15.6826 60.3641C15.6826 61.0953 16.2751 61.6877 17.0063 61.6877H27.72C28.4512 61.6877 29.0437 61.0953 29.0437 60.3641Z" fill="#2A72E5"/>
</svg>