<svg xmlns="http://www.w3.org/2000/svg" width="21" height="14" viewBox="0 0 21 14" fill="none">
  <path d="M20.6357 0.5H0.635742V13.5H20.6357V0.5Z" fill="#F0F0F0"/>
  <path d="M20.6357 2.12485H0.635742V3.74969H20.6357V2.12485Z" fill="#D80027"/>
  <path d="M20.6357 5.37495H0.635742V6.9998H20.6357V5.37495Z" fill="#D80027"/>
  <path d="M20.6357 8.62464H0.635742V10.2495H20.6357V8.62464Z" fill="#D80027"/>
  <path d="M20.6357 11.8747H0.635742V13.4996H20.6357V11.8747Z" fill="#D80027"/>
  <path d="M10.6357 0.5H0.635742V7.50001H10.6357V0.5Z" fill="#2E52B2"/>
  <path d="M4.53453 3.36757L4.37348 3.85065H3.85254L4.27406 4.14905L4.11301 4.63209L4.53453 4.33368L4.95578 4.63209L4.79477 4.14905L5.21629 3.85065H4.69531L4.53453 3.36757Z" fill="#F0F0F0"/>
  <path d="M4.69531 5.5939L4.53453 5.11086L4.37348 5.5939H3.85254L4.27406 5.89234L4.11301 6.37538L4.53453 6.07694L4.95578 6.37538L4.79477 5.89234L5.21629 5.5939H4.69531Z" fill="#F0F0F0"/>
  <path d="M2.49418 5.5939L2.33336 5.11086L2.1723 5.5939H1.65137L2.07289 5.89234L1.91184 6.37538L2.33336 6.07694L2.75465 6.37538L2.59363 5.89234L3.01508 5.5939H2.49418Z" fill="#F0F0F0"/>
  <path d="M2.33336 3.36757L2.1723 3.85065H1.65137L2.07289 4.14905L1.91184 4.63209L2.33336 4.33368L2.75465 4.63209L2.59363 4.14905L3.01508 3.85065H2.49418L2.33336 3.36757Z" fill="#F0F0F0"/>
  <path d="M4.53453 1.62424L4.37348 2.10736H3.85254L4.27406 2.4058L4.11301 2.88884L4.53453 2.5904L4.95578 2.88884L4.79477 2.4058L5.21629 2.10736H4.69531L4.53453 1.62424Z" fill="#F0F0F0"/>
  <path d="M2.33336 1.62424L2.1723 2.10736H1.65137L2.07289 2.4058L1.91184 2.88884L2.33336 2.5904L2.75465 2.88884L2.59363 2.4058L3.01508 2.10736H2.49418L2.33336 1.62424Z" fill="#F0F0F0"/>
  <path d="M6.73664 3.36757L6.57562 3.85065H6.05469L6.47617 4.14905L6.31519 4.63209L6.73664 4.33368L7.15797 4.63209L6.99691 4.14905L7.41844 3.85065H6.8975L6.73664 3.36757Z" fill="#F0F0F0"/>
  <path d="M6.8975 5.5939L6.73664 5.11086L6.57562 5.5939H6.05469L6.47617 5.89234L6.31519 6.37538L6.73664 6.07694L7.15797 6.37538L6.99691 5.89234L7.41844 5.5939H6.8975Z" fill="#F0F0F0"/>
  <path d="M9.09863 5.5939L8.93781 5.11086L8.77676 5.5939H8.25586L8.6773 5.89234L8.51629 6.37538L8.93781 6.07694L9.3591 6.37538L9.19805 5.89234L9.61957 5.5939H9.09863Z" fill="#F0F0F0"/>
  <path d="M8.93781 3.36757L8.77676 3.85065H8.25586L8.6773 4.14905L8.51629 4.63209L8.93781 4.33368L9.3591 4.63209L9.19805 4.14905L9.61957 3.85065H9.09863L8.93781 3.36757Z" fill="#F0F0F0"/>
  <path d="M6.73664 1.62424L6.57562 2.10736H6.05469L6.47617 2.4058L6.31519 2.88884L6.73664 2.5904L7.15797 2.88884L6.99691 2.4058L7.41844 2.10736H6.8975L6.73664 1.62424Z" fill="#F0F0F0"/>
  <path d="M8.93781 1.62424L8.77676 2.10736H8.25586L8.6773 2.4058L8.51629 2.88884L8.93781 2.5904L9.3591 2.88884L9.19805 2.4058L9.61957 2.10736H9.09863L8.93781 1.62424Z" fill="#F0F0F0"/>
</svg>