<svg xmlns="http://www.w3.org/2000/svg" width="14" height="26" viewBox="0 0 14 26" fill="none">
                  <path d="M1.891 26C1.27172 26 0.796209 25.9445 0.464455 25.8335C0.154818 25.7448 0 25.545 0 25.2343C0 25.1233 0.0110585 25.0013 0.0331754 24.8681C0.0774092 24.735 0.132701 24.5907 0.199052 24.4353L9.98578 0.965429C10.1627 0.588135 10.3618 0.332906 10.5829 0.199744C10.8041 0.0665818 11.169 0 11.6777 0H12.109C12.7283 0 13.1927 0.0554844 13.5024 0.166453C13.8341 0.255228 14 0.454972 14 0.765685C14 0.85446 13.9779 0.976525 13.9336 1.13188C13.9115 1.26504 13.8673 1.4093 13.8009 1.56466L4.01422 25.0346C3.8594 25.4119 3.66035 25.6671 3.41706 25.8003C3.19589 25.9334 2.83096 26 2.32227 26H1.891Z" fill="#1F1F1F"/>
                </svg>